<svg width="260" height="159" viewBox="0 0 260 159" fill="none" xmlns="http://www.w3.org/2000/svg">
<g filter="url(#filter0_d_83_2169)">
<path d="M5 36C5 32.134 8.13401 29 12 29H248C251.866 29 255 32.134 255 36V147C255 150.866 251.866 154 248 154H12C8.13401 154 5 150.866 5 147L5 36Z" fill="white"/>
<path d="M65 9H99.3717C103.18 9 106.657 11.1627 108.341 14.5781L112 22H65V9Z" fill="white"/>
<path d="M5 21H248C251.866 21 255 24.134 255 28V35H5V21Z" fill="#004AB9"/>
<path d="M5 15C5 9.47716 9.47715 5 15 5H61.3754C64.4676 5 67.3858 6.43049 69.2799 8.87469L78.7952 21.1538H5V15Z" fill="#004AB9"/>
</g>
<defs>
<filter id="filter0_d_83_2169" x="0" y="0" width="260" height="159" filterUnits="userSpaceOnUse" color-interpolation-filters="sRGB">
<feFlood flood-opacity="0" result="BackgroundImageFix"/>
<feColorMatrix in="SourceAlpha" type="matrix" values="0 0 0 0 0 0 0 0 0 0 0 0 0 0 0 0 0 0 127 0" result="hardAlpha"/>
<feOffset/>
<feGaussianBlur stdDeviation="2.5"/>
<feComposite in2="hardAlpha" operator="out"/>
<feColorMatrix type="matrix" values="0 0 0 0 0 0 0 0 0 0 0 0 0 0 0 0 0 0 0.25 0"/>
<feBlend mode="normal" in2="BackgroundImageFix" result="effect1_dropShadow_83_2169"/>
<feBlend mode="normal" in="SourceGraphic" in2="effect1_dropShadow_83_2169" result="shape"/>
</filter>
</defs>
</svg>
