<svg width="307" height="304" viewBox="0 0 307 304" fill="none" xmlns="http://www.w3.org/2000/svg">
<g opacity="0.38">
<g filter="url(#filter0_d_81_1795)">
<path d="M153.392 164.896L276.707 206.26H30.0769L153.392 164.896Z" fill="#7EAAEC"/>
<path d="M153.392 164.896L276.707 206.26H30.0769L153.392 164.896Z" fill="url(#paint0_linear_81_1795)" fill-opacity="0.2"/>
<path d="M153.392 247.625L30.077 206.26L276.707 206.26L153.392 247.625Z" fill="#7EAAEC"/>
<path d="M153.392 247.625L30.077 206.26L276.707 206.26L153.392 247.625Z" fill="url(#paint1_linear_81_1795)" fill-opacity="0.2"/>
<path d="M30.2646 205.987L153.665 247.599L153.665 266.86L30.2646 222.772L30.2646 205.987Z" fill="#7EAAEC"/>
<path d="M30.2646 205.987L153.665 247.599L153.665 266.86L30.2646 222.772L30.2646 205.987Z" fill="url(#paint2_linear_81_1795)" fill-opacity="0.2"/>
<path d="M276.922 205.75L153.522 247.362L153.522 266.52L276.922 223.113L276.922 205.75Z" fill="#7EAAEC"/>
<path d="M276.922 205.75L153.522 247.362L153.522 266.52L276.922 223.113L276.922 205.75Z" fill="url(#paint3_linear_81_1795)" fill-opacity="0.2"/>
</g>
<g filter="url(#filter1_d_81_1795)">
<path d="M153.392 109.93L276.707 151.295H30.0769L153.392 109.93Z" fill="#CADFFF"/>
<path d="M153.392 109.93L276.707 151.295H30.0769L153.392 109.93Z" fill="url(#paint4_linear_81_1795)" fill-opacity="0.2"/>
<path d="M153.392 192.659L30.077 151.295L276.707 151.295L153.392 192.659Z" fill="#CADFFF"/>
<path d="M153.392 192.659L30.077 151.295L276.707 151.295L153.392 192.659Z" fill="url(#paint5_linear_81_1795)" fill-opacity="0.2"/>
<path d="M30.2646 151.021L153.665 192.634L153.665 211.895L30.2646 167.807L30.2646 151.021Z" fill="#CADFFF"/>
<path d="M30.2646 151.021L153.665 192.634L153.665 211.895L30.2646 167.807L30.2646 151.021Z" fill="url(#paint6_linear_81_1795)" fill-opacity="0.2"/>
<path d="M276.922 150.784L153.522 192.397L153.522 211.554L276.922 168.147L276.922 150.784Z" fill="#CADFFF"/>
<path d="M276.922 150.784L153.522 192.397L153.522 211.554L276.922 168.147L276.922 150.784Z" fill="url(#paint7_linear_81_1795)" fill-opacity="0.2"/>
</g>
<path d="M153.392 54.9652L276.707 96.3298H30.0769L153.392 54.9652Z" fill="#E5EFFF"/>
<path d="M153.392 54.9652L276.707 96.3298H30.0769L153.392 54.9652Z" fill="url(#paint8_linear_81_1795)" fill-opacity="0.2"/>
<path d="M153.392 137.694L30.077 96.3298L276.707 96.3298L153.392 137.694Z" fill="#E5EFFF"/>
<path d="M153.392 137.694L30.077 96.3298L276.707 96.3298L153.392 137.694Z" fill="url(#paint9_linear_81_1795)" fill-opacity="0.2"/>
<path d="M30.2646 96.0562L153.665 137.669L153.665 156.93L30.2646 112.842L30.2646 96.0562Z" fill="#E5EFFF"/>
<path d="M30.2646 96.0562L153.665 137.669L153.665 156.93L30.2646 112.842L30.2646 96.0562Z" fill="url(#paint10_linear_81_1795)" fill-opacity="0.2"/>
<path d="M276.922 95.8191L153.522 137.432L153.522 156.589L276.922 113.182L276.922 95.8191Z" fill="#E5EFFF"/>
<path d="M276.922 95.8191L153.522 137.432L153.522 156.589L276.922 113.182L276.922 95.8191Z" fill="url(#paint11_linear_81_1795)" fill-opacity="0.2"/>
<path d="M153.392 0L276.707 41.3645H30.0769L153.392 0Z" fill="white"/>
<path d="M153.392 0L276.707 41.3645H30.0769L153.392 0Z" fill="url(#paint12_linear_81_1795)" fill-opacity="0.2"/>
<path d="M153.392 82.729L30.077 41.3644L276.707 41.3645L153.392 82.729Z" fill="white"/>
<path d="M153.392 82.729L30.077 41.3644L276.707 41.3645L153.392 82.729Z" fill="url(#paint13_linear_81_1795)" fill-opacity="0.2"/>
<path d="M30.2646 41.0909L153.665 82.7035L153.665 101.964L30.2646 57.8763L30.2646 41.0909Z" fill="white"/>
<path d="M30.2646 41.0909L153.665 82.7035L153.665 101.964L30.2646 57.8763L30.2646 41.0909Z" fill="url(#paint14_linear_81_1795)" fill-opacity="0.2"/>
<path d="M276.922 40.8539L153.522 82.4664L153.522 101.624L276.922 58.2168L276.922 40.8539Z" fill="white"/>
<path d="M276.922 40.8539L153.522 82.4664L153.522 101.624L276.922 58.2168L276.922 40.8539Z" fill="url(#paint15_linear_81_1795)" fill-opacity="0.2"/>
</g>
<defs>
<filter id="filter0_d_81_1795" x="0.376659" y="143.196" width="306.246" height="161.364" filterUnits="userSpaceOnUse" color-interpolation-filters="sRGB">
<feFlood flood-opacity="0" result="BackgroundImageFix"/>
<feColorMatrix in="SourceAlpha" type="matrix" values="0 0 0 0 0 0 0 0 0 0 0 0 0 0 0 0 0 0 127 0" result="hardAlpha"/>
<feOffset dy="8"/>
<feGaussianBlur stdDeviation="14.85"/>
<feComposite in2="hardAlpha" operator="out"/>
<feColorMatrix type="matrix" values="0 0 0 0 0.872159 0 0 0 0 0.984659 0 0 0 0 1 0 0 0 0.42 0"/>
<feBlend mode="normal" in2="BackgroundImageFix" result="effect1_dropShadow_81_1795"/>
<feBlend mode="normal" in="SourceGraphic" in2="effect1_dropShadow_81_1795" result="shape"/>
</filter>
<filter id="filter1_d_81_1795" x="22.0767" y="105.93" width="262.846" height="117.964" filterUnits="userSpaceOnUse" color-interpolation-filters="sRGB">
<feFlood flood-opacity="0" result="BackgroundImageFix"/>
<feColorMatrix in="SourceAlpha" type="matrix" values="0 0 0 0 0 0 0 0 0 0 0 0 0 0 0 0 0 0 127 0" result="hardAlpha"/>
<feOffset dy="4"/>
<feGaussianBlur stdDeviation="4"/>
<feComposite in2="hardAlpha" operator="out"/>
<feColorMatrix type="matrix" values="0 0 0 0 0.872159 0 0 0 0 0.984659 0 0 0 0 1 0 0 0 0.42 0"/>
<feBlend mode="normal" in2="BackgroundImageFix" result="effect1_dropShadow_81_1795"/>
<feBlend mode="normal" in="SourceGraphic" in2="effect1_dropShadow_81_1795" result="shape"/>
</filter>
<linearGradient id="paint0_linear_81_1795" x1="242.611" y1="191.791" x2="182.765" y2="250.163" gradientUnits="userSpaceOnUse">
<stop/>
<stop offset="1" stop-opacity="0"/>
</linearGradient>
<linearGradient id="paint1_linear_81_1795" x1="64.173" y1="220.729" x2="124.019" y2="162.357" gradientUnits="userSpaceOnUse">
<stop/>
<stop offset="1" stop-opacity="0"/>
</linearGradient>
<linearGradient id="paint2_linear_81_1795" x1="94.5196" y1="227.654" x2="88.8376" y2="244.504" gradientUnits="userSpaceOnUse">
<stop/>
<stop offset="1" stop-opacity="0"/>
</linearGradient>
<linearGradient id="paint3_linear_81_1795" x1="212.667" y1="227.417" x2="218.349" y2="244.266" gradientUnits="userSpaceOnUse">
<stop/>
<stop offset="1" stop-opacity="0"/>
</linearGradient>
<linearGradient id="paint4_linear_81_1795" x1="242.611" y1="136.826" x2="182.765" y2="195.198" gradientUnits="userSpaceOnUse">
<stop/>
<stop offset="1" stop-opacity="0"/>
</linearGradient>
<linearGradient id="paint5_linear_81_1795" x1="64.173" y1="165.764" x2="124.019" y2="107.392" gradientUnits="userSpaceOnUse">
<stop/>
<stop offset="1" stop-opacity="0"/>
</linearGradient>
<linearGradient id="paint6_linear_81_1795" x1="94.5196" y1="172.689" x2="88.8376" y2="189.539" gradientUnits="userSpaceOnUse">
<stop/>
<stop offset="1" stop-opacity="0"/>
</linearGradient>
<linearGradient id="paint7_linear_81_1795" x1="212.667" y1="172.452" x2="218.349" y2="189.3" gradientUnits="userSpaceOnUse">
<stop/>
<stop offset="1" stop-opacity="0"/>
</linearGradient>
<linearGradient id="paint8_linear_81_1795" x1="242.611" y1="81.8607" x2="182.765" y2="140.233" gradientUnits="userSpaceOnUse">
<stop/>
<stop offset="1" stop-opacity="0"/>
</linearGradient>
<linearGradient id="paint9_linear_81_1795" x1="64.173" y1="110.799" x2="124.019" y2="52.4269" gradientUnits="userSpaceOnUse">
<stop/>
<stop offset="1" stop-opacity="0"/>
</linearGradient>
<linearGradient id="paint10_linear_81_1795" x1="94.5196" y1="117.724" x2="88.8376" y2="134.574" gradientUnits="userSpaceOnUse">
<stop/>
<stop offset="1" stop-opacity="0"/>
</linearGradient>
<linearGradient id="paint11_linear_81_1795" x1="212.667" y1="117.487" x2="218.349" y2="134.335" gradientUnits="userSpaceOnUse">
<stop/>
<stop offset="1" stop-opacity="0"/>
</linearGradient>
<linearGradient id="paint12_linear_81_1795" x1="242.611" y1="26.8955" x2="182.765" y2="85.2674" gradientUnits="userSpaceOnUse">
<stop/>
<stop offset="1" stop-opacity="0"/>
</linearGradient>
<linearGradient id="paint13_linear_81_1795" x1="64.173" y1="55.8335" x2="124.019" y2="-2.53843" gradientUnits="userSpaceOnUse">
<stop/>
<stop offset="1" stop-opacity="0"/>
</linearGradient>
<linearGradient id="paint14_linear_81_1795" x1="94.5196" y1="62.7587" x2="88.8376" y2="79.6084" gradientUnits="userSpaceOnUse">
<stop/>
<stop offset="1" stop-opacity="0"/>
</linearGradient>
<linearGradient id="paint15_linear_81_1795" x1="212.667" y1="62.5216" x2="218.349" y2="79.3698" gradientUnits="userSpaceOnUse">
<stop/>
<stop offset="1" stop-opacity="0"/>
</linearGradient>
</defs>
</svg>
