<svg width="40" height="38" viewBox="0 0 40 38" fill="none" xmlns="http://www.w3.org/2000/svg">
<g clip-path="url(#clip0_108_11)">
<path d="M20.0002 1.33337C10.8002 1.33337 3.3335 8.80004 3.3335 18C3.3335 27.2 10.8002 34.6667 20.0002 34.6667C29.2002 34.6667 36.6668 27.2 36.6668 18C36.6668 8.80004 29.2002 1.33337 20.0002 1.33337ZM20.0002 31.3334C12.6502 31.3334 6.66683 25.35 6.66683 18C6.66683 10.65 12.6502 4.66671 20.0002 4.66671C27.3502 4.66671 33.3335 10.65 33.3335 18C33.3335 25.35 27.3502 31.3334 20.0002 31.3334ZM27.6502 10.6334L16.6668 21.6167L12.3502 17.3167L10.0002 19.6667L16.6668 26.3334L30.0002 13L27.6502 10.6334Z" fill="#26B104"/>
</g>
<defs>
<clipPath id="clip0_108_11">
<rect width="40" height="40" fill="white" transform="translate(0 -2)"/>
</clipPath>
</defs>
</svg>
