<svg width="7" height="9" viewBox="0 0 7 9" fill="none" xmlns="http://www.w3.org/2000/svg">
<path d="M3.5 0.75C4.08214 0.749979 4.64164 0.975587 5.06093 1.37942C5.48022 1.78326 5.72667 2.33389 5.7485 2.91563L5.75 3H6.125C6.31422 2.99994 6.49646 3.0714 6.63521 3.20006C6.77395 3.32872 6.85893 3.50507 6.87313 3.69375L6.875 3.75V7.5C6.87506 7.68922 6.8036 7.87146 6.67494 8.01021C6.54628 8.14895 6.36993 8.23393 6.18125 8.24813L6.125 8.25H0.875C0.685784 8.25006 0.503538 8.1786 0.364795 8.04994C0.226052 7.92128 0.141066 7.74493 0.126875 7.55625L0.125 7.5V3.75C0.12494 3.56078 0.196402 3.37854 0.325061 3.23979C0.45372 3.10105 0.630067 3.01607 0.81875 3.00187L0.875 3H1.25C1.25 2.40326 1.48705 1.83097 1.90901 1.40901C2.33097 0.987053 2.90326 0.75 3.5 0.75ZM6.125 3.75H0.875V7.5H6.125V3.75ZM3.5 4.5C3.65997 4.50005 3.81574 4.55125 3.94454 4.64612C4.07334 4.74099 4.16844 4.87455 4.21594 5.02731C4.26344 5.18007 4.26085 5.34401 4.20855 5.49519C4.15625 5.64637 4.05699 5.77687 3.92525 5.86763L3.875 5.8995V6.375C3.87489 6.47058 3.8383 6.56251 3.77268 6.63201C3.70707 6.70151 3.61739 6.74334 3.52198 6.74894C3.42656 6.75454 3.33261 6.7235 3.25931 6.66215C3.18602 6.6008 3.13891 6.51379 3.12762 6.41888L3.125 6.375V5.8995C2.98203 5.81695 2.87029 5.68952 2.80712 5.53699C2.74394 5.38446 2.73286 5.21535 2.77559 5.05588C2.81832 4.89641 2.91247 4.7555 3.04345 4.65499C3.17443 4.55449 3.33491 4.50001 3.5 4.5ZM3.5 1.5C3.10218 1.5 2.72064 1.65804 2.43934 1.93934C2.15804 2.22064 2 2.60218 2 3H5C5 2.60218 4.84196 2.22064 4.56066 1.93934C4.27936 1.65804 3.89782 1.5 3.5 1.5Z" fill="#979797"/>
</svg>
