<svg width="25" height="25" viewBox="0 0 25 25" fill="none" xmlns="http://www.w3.org/2000/svg">
<path fill-rule="evenodd" clip-rule="evenodd" d="M22.8079 0.675176C22.6996 0.566703 22.5709 0.480651 22.4293 0.421939C22.2876 0.363228 22.1358 0.333008 21.9825 0.333008C21.8292 0.333008 21.6774 0.363228 21.5357 0.421939C21.3941 0.480651 21.2654 0.566703 21.1571 0.675176L20.1398 1.69251C19.4864 1.38072 18.7524 1.27916 18.0389 1.40181C17.3253 1.52445 16.6674 1.86527 16.1556 2.37734L3.78076 14.751L10.3806 21.3508L22.7566 8.97834C23.2686 8.46651 23.6093 7.80849 23.7318 7.09494C23.8542 6.38139 23.7524 5.64743 23.4403 4.99418L24.4588 3.97568C24.6775 3.75689 24.8003 3.4602 24.8003 3.15084C24.8003 2.84148 24.6775 2.54479 24.4588 2.32601L22.8079 0.675176ZM17.8286 10.6035L10.3806 18.0515L7.08126 14.751L14.5281 7.30418L17.8286 10.6035ZM19.9496 8.48251L21.1046 7.32751C21.2131 7.21916 21.2991 7.09049 21.3578 6.94886C21.4165 6.80723 21.4468 6.65541 21.4468 6.50209C21.4468 6.34877 21.4165 6.19696 21.3578 6.05533C21.2991 5.9137 21.2131 5.78503 21.1046 5.67668L19.4561 4.02701C19.3477 3.91854 19.2191 3.83248 19.0774 3.77377C18.9358 3.71506 18.784 3.68484 18.6307 3.68484C18.4774 3.68484 18.3255 3.71506 18.1839 3.77377C18.0423 3.83248 17.9136 3.91854 17.8053 4.02701L16.6503 5.18201L19.9496 8.48251Z" fill="#B7B7B7"/>
<path d="M0.333496 24.775L2.80916 15.7007L9.40783 22.3005L0.333496 24.775Z" fill="#B7B7B7"/>
</svg>
