<svg width="23" height="23" viewBox="0 0 23 23" fill="none" xmlns="http://www.w3.org/2000/svg">
<path d="M22.1056 22.1056C21.6116 22.5995 20.8107 22.5995 20.3167 22.1056L14.9486 16.7375C13.931 15.7199 12.3114 15.6777 10.9569 16.1639C10.1264 16.462 9.24259 16.6111 8.30556 16.6111C5.98426 16.6111 4.01989 15.807 2.41244 14.1987C0.805 12.5904 0.000851852 10.626 0 8.30556C0 5.98426 0.804148 4.01989 2.41244 2.41244C4.02074 0.805 5.98511 0.000851852 8.30556 0C10.6269 0 12.5916 0.804148 14.1999 2.41244C15.8082 4.02074 16.612 5.98511 16.6111 8.30556C16.6111 9.24259 16.462 10.1264 16.1639 10.9569C15.6777 12.3114 15.7199 13.931 16.7375 14.9486L22.1056 20.3167C22.5995 20.8107 22.5995 21.6116 22.1056 22.1056ZM8.30556 14.0556C9.90278 14.0556 11.2606 13.4967 12.3791 12.3791C13.4976 11.2615 14.0564 9.90363 14.0556 8.30556C14.0556 6.70833 13.4967 5.35091 12.3791 4.23328C11.2615 3.11565 9.90363 2.55641 8.30556 2.55556C6.70833 2.55556 5.35091 3.1148 4.23328 4.23328C3.11565 5.35176 2.55641 6.70919 2.55556 8.30556C2.55556 9.90278 3.1148 11.2606 4.23328 12.3791C5.35176 13.4976 6.70919 14.0564 8.30556 14.0556Z" fill="#898989"/>
</svg>
